Coordinates
version=1
nRows=49
nColumns=12
inDegrees=yes

Units are S.I. units (second, meters, Newtons, ...)
Angles are in degrees

endheader
time	SC_y	SC_z	SC_x	AC_y	AC_z	AC_x	GH_y	GH_z	GH_yy	EL_x	PS_y
       0.0              -54.69          26.13          43.82           46.9         0.8574          18.67          166.7          31.75         -36.88          110.0          153.9
   0.01377              -54.69          26.13          43.82           46.9         0.8569          18.67          166.6          31.75         -36.89          110.0          153.9
   0.02754              -54.68          26.13          43.82           46.9         0.8563          18.67          166.6          31.76         -36.91          110.0          153.9
   0.04131              -54.68          26.12          43.83           46.9         0.8557          18.67          166.6          31.77         -36.92          110.0          153.9
   0.05508              -54.68          26.12          43.83           46.9         0.8551          18.66          166.6          31.78         -36.94          110.0          153.9
   0.06885              -54.67          26.12          43.83          46.89         0.8544          18.66          166.6          31.79         -36.96          110.0          153.8
   0.08261              -54.67          26.11          43.83          46.89         0.8537          18.66          166.6           31.8         -36.98          110.0          153.8
   0.09638              -54.66          26.11          43.83          46.89         0.8529          18.65          166.6          31.81          -37.0          110.0          153.8
    0.1102              -54.66           26.1          43.84          46.89          0.852          18.65          166.5          31.82         -37.02          110.0          153.8
    0.1239              -54.65           26.1          43.84          46.89         0.8511          18.64          166.5          31.83         -37.05          110.0          153.8
    0.1377              -54.65           26.1          43.84          46.88         0.8502          18.64          166.5          31.84         -37.07          110.0          153.8
    0.1515              -54.64          26.09          43.85          46.88         0.8492          18.63          166.5          31.85          -37.1          110.0          153.7
    0.1652              -54.64          26.08          43.85          46.88          0.848          18.63          166.4          31.87         -37.13          110.0          153.7
     0.179              -54.63          26.08          43.85          46.88         0.8468          18.62          166.4          31.88         -37.17          110.0          153.7
    0.1928              -54.62          26.07          43.86          46.87         0.8455          18.62          166.4           31.9          -37.2          110.0          153.7
    0.2065              -54.61          26.07          43.86          46.87         0.8441          18.61          166.4          31.92         -37.24          110.0          153.7
    0.2203               -54.6          26.06          43.87          46.87         0.8426           18.6          166.3          31.94         -37.29          110.0          153.6
    0.2341              -54.59          26.05          43.87          46.86         0.8409           18.6          166.3          31.96         -37.33          110.0          153.6
    0.2478              -54.58          26.04          43.88          46.86         0.8391          18.59          166.2          31.99         -37.38          110.0          153.6
    0.2616              -54.57          26.03          43.88          46.85         0.8371          18.58          166.2          32.01         -37.44          110.0          153.5
    0.2754              -54.56          26.02          43.89          46.85         0.8349          18.57          166.1          32.04          -37.5          110.1          153.5
    0.2892              -54.54          26.01           43.9          46.84         0.8325          18.56          166.1          32.07         -37.57          110.1          153.4
    0.3029              -54.53          25.99          43.91          46.84         0.8298          18.54          166.0          32.11         -37.64          110.1          153.4
    0.3167              -54.51          25.98          43.92          46.83         0.8268          18.53          166.0          32.15         -37.72          110.1          153.3
    0.3305              -54.49          25.96          43.93          46.82         0.8235          18.51          165.9          32.19         -37.81          110.1          153.3
    0.3442              -54.47          25.94          43.94          46.81         0.8199           18.5          165.8          32.24         -37.91          110.1          153.2
     0.358              -54.44          25.92          43.95           46.8         0.8157          18.48          165.7          32.29         -38.03          110.1          153.1
    0.3718              -54.41           25.9          43.97          46.79         0.8111          18.45          165.6          32.35         -38.15          110.1          153.0
    0.3855              -54.38          25.88          43.98          46.78         0.8059          18.43          165.5          32.42          -38.3          110.2          152.9
    0.3993              -54.35          25.85           44.0          46.77         0.7999           18.4          165.3           32.5         -38.46          110.2          152.8
    0.4131              -54.31          25.81          44.02          46.75         0.7932          18.37          165.2          32.59         -38.65          110.2          152.7
    0.4268              -54.26          25.77          44.05          46.74         0.7854          18.33          165.0          32.69         -38.87          110.2          152.5
    0.4406              -54.21          25.73          44.07          46.71         0.7764          18.29          164.8          32.81         -39.11          110.3          152.4
    0.4544              -54.14          25.68          44.11          46.69          0.766          18.24          164.6          32.94          -39.4          110.3          152.2
    0.4681              -54.07          25.62          44.15          46.66         0.7538          18.18          164.3           33.1         -39.74          110.4          151.9
    0.4819              -53.99          25.54          44.19          46.63         0.7394          18.12          163.9          33.29         -40.14          110.4          151.7
    0.4957              -53.88          25.46          44.24          46.59         0.7223          18.03          163.6          33.52         -40.61          110.5          151.3
    0.5095              -53.76          25.36          44.31          46.54         0.7017          17.94          163.1          33.78         -41.18          110.6          151.0
    0.5232              -53.61          25.23          44.39          46.49         0.6769          17.82          162.5          34.11         -41.86          110.6          150.5
     0.537              -53.43          25.08          44.48          46.42         0.6466          17.68          161.8          34.51          -42.7          110.8          149.9
    0.5508              -53.21           24.9           44.6          46.33         0.6092           17.5          161.0           35.0         -43.73          110.9          149.2
    0.5645              -52.93          24.67          44.74          46.22         0.5626          17.28          159.9          35.61         -45.02          111.1          148.3
    0.5783              -52.58          24.37          44.93          46.09         0.5038           17.0          158.5          36.37         -46.65          111.3          147.2
    0.5921              -52.13           24.0          45.16          45.92         0.4292          16.65          156.8          37.35         -48.71          111.6          145.8
    0.6058              -51.56          23.53          45.46           45.7         0.3336           16.2          154.6           38.6         -51.35          111.9          144.0
    0.6196              -50.82          22.92          45.85          45.42         0.2109          15.62          151.8          40.21         -54.74          112.4          141.7
    0.6334              -49.89          22.14          46.34          45.06        0.05419          14.88          148.2          42.26         -59.07          113.0          138.7
    0.6471              -48.71          21.16          46.95          44.61        -0.1428          13.95          143.7          44.84         -64.51          113.7          135.0
    0.6609              -47.27          19.96          47.71          44.05         -0.383          12.81          138.2          47.99         -71.15          114.6          130.4
